<?xml version="1.0" encoding="UTF-8"?>
<svg id="PRIMARY-DOM" xmlns="http://www.w3.org/2000/svg" viewBox="0 0 1133.86 1133.86">
  <defs>
    <style>
      .cls-1 {
        fill: #fff;
      }

      .cls-2 {
        fill: #121417;
      }
    </style>
  </defs>
  <rect id="BOX" class="cls-2" x="0" y="0" width="1133.86" height="1133.86"/>
  <g id="AUS">
    <path class="cls-1" d="M538.68,167.06c.11,0,.21.09.21.21s-.1.17-.21.22c-73.42,25.67-96.74,115.05-96.74,115.05-.02.13.02.26.13.34.15.11.34.07.46-.08,132.89-174.04,256.67-117.73,256.67-117.73.23.06.35.27.29.5-.04.19-.21.33-.4.31-2.37-.22-38.96-3.16-51.18,30.63l184.5,205.99c0,6-2.31,11.32-6.01,15.99-1.91-2.8-9.84-6.52-15.1-8.2-7.22-2.34-13.93-3.49-13.93-8.87,0-3.9,3.41-4.95,5.19-4.95,1.58,0,2.47.74,2.47.74.03.04.08.05.11.01.04-.03.05-.08.03-.11,0,0-1.25-2.74-4.93-2.8-3.59-.09-9.29,2.47-9.63,9.27-.25,5.61,2.41,8.65,6.48,11.48,4.03,2.79,11.93,6.35,11.93,12.23s-4.5,7.27-5.5,7.73c-1.96.95-18.67,8.48-35.03,11.55-.82-2.85-.87-12.38-17.68-29.2-32.53-32.53-148.58-5.32-148.58-85.33,0-36.92,35.06-51.64,55.13-50.54,17.01.93,24.17,6.16,25.44,6.98.1.07.24.06.35-.02.18-.1.23-.33.12-.49,0,0-12.74-28.03-48.93-28.03-40.05,0-96.3,29.31-96.3,93.28,0,132.78,186.04,124.44,186.04,236.67,0,43.78-25.71,66.15-58.09,77.65,0,0,15.48-10.95,15.48-31.8,0-94.94-219.92-74.53-219.92-178.8,0-40.59,34.63-55.29,43.51-55.29.2,0,.37-.17.37-.37,0-.13-.07-.25-.18-.31-1.08-.66-6.69-3.61-17.24-3.61-27.54,0-80.03,24.8-80.03,87.9,0,75.16,97.77,122.43,97.77,158.73,0,15.81-9.92,26.51-9.92,26.51-80.33-25.62-182.98-106.18-182.98-249.8,0-173.72,162.22-253.63,225.84-253.63"/>
  </g>
  <g id="UOFN">
    <g>
      <path class="cls-1" d="M219,811.3c0,9.8-6.5,28.78-32.72,28.78-21.26,0-32.59-10.82-32.59-28.01v-58.57h11.33v57.8c0,13.88,7,20.12,22.41,20.12,14.26,0,21.52-9.29,21.52-20.12v-57.8h10.06v57.8Z"/>
      <path class="cls-1" d="M305.97,753.5v84.92h-9.17l-51.44-65.32v65.32h-10.19v-84.92h9.17l51.44,66.08v-66.08h10.18Z"/>
      <path class="cls-1" d="M322.07,838.42v-84.92h11.33v84.92h-11.33Z"/>
      <path class="cls-1" d="M382.44,839.19h-4.97l-28.01-85.69h11.84l19.99,63.53,22.28-63.53h10.19l-31.32,85.69Z"/>
      <path class="cls-1" d="M477.78,838.42h-48v-84.92h46.47v8.53h-35.14v28.39h25.72v8.53h-25.72v30.94h36.67v8.53Z"/>
      <path class="cls-1" d="M539.8,839.7l-25.21-41.25h-9.42v39.98h-11.33v-84.92h22.53c21.39,0,26.99,13.11,26.99,20.37,0,11.21-8.91,20.5-17.44,22.41l26.1,42.15-12.22,1.27ZM513.2,790.93c13.24,0,18.84-8.53,18.84-15.15,0-7.51-5.47-14.51-18.72-14.51h-8.4v29.67h8.28Z"/>
      <path class="cls-1" d="M583.24,831.55c8.53,0,15.79-6.24,15.79-13.37,0-9.8-10.06-14.39-19.35-19.99-9.04-5.47-20.37-10.69-20.37-24.82,0-11.97,10.19-21.52,25.08-21.52,10.95,0,18.34,2.67,22.28,4.46l-3.44,8.15c-3.56-1.53-9.17-4.08-18.72-4.08-10.7,0-14.39,5.86-14.39,10.82,0,9.04,8.28,12.61,18.84,19.1,9.04,5.73,21.9,11.58,21.9,26.23,0,13.75-13.88,23.56-28.14,23.56s-22.41-4.2-25.97-5.86l3.69-7.89c3.06,1.27,10.82,5.22,22.79,5.22Z"/>
      <path class="cls-1" d="M626.88,838.17v-84.92h11.33v84.92h-11.33Z"/>
      <path class="cls-1" d="M654.29,753.5h65.44v8.53h-27.12v76.4h-11.33v-76.4h-26.99v-8.53Z"/>
      <path class="cls-1" d="M796.04,753.5l-27.37,43.8v41.13h-11.33v-41.13l-26.87-43.8h12.22l21.39,35.27,21.26-35.27h10.7Z"/>
      <path class="cls-1" d="M919.03,796.03c0,26.74-17.7,44.05-41.38,44.05s-41.38-17.06-41.38-44.05c0-25.21,16.3-44.18,41.38-44.18,26.61,0,41.38,18.33,41.38,44.18ZM848.49,796.03c0,21.39,11.46,35.78,29.16,35.78s29.16-14.39,29.16-35.78-11.46-35.91-29.16-35.91-29.16,14.52-29.16,35.91Z"/>
      <path class="cls-1" d="M935.35,838.42v-84.92h43.93v8.53h-32.59v28.39h22.92v8.53h-22.92v39.47h-11.33Z"/>
    </g>
    <path class="cls-1" d="M246.34,872.58v102.67h-20.78l-53.26-68.34v68.34h-18.62v-102.67h19.39l54.64,69.88v-69.88h18.62Z"/>
    <path class="cls-1" d="M328.93,975.25h-66.19v-102.67h64.34v16h-42.48v25.86h31.09v16.01h-31.09v28.78h44.33v16.01Z"/>
    <path class="cls-1" d="M385.91,976.17h-13.39l-33.71-103.59h21.55l22.16,70.19,14.78-40.63-9.54-29.55h21.7l21.09,68.03,23.24-68.03h18.93l-37.86,103.59h-13.39l-16.78-51.57-18.78,51.57Z"/>
    <path class="cls-1" d="M561.72,969.7c-7.24,3.85-17.24,7.54-36.63,7.54-30.48,0-54.18-21.85-54.18-53.25s23.7-53.41,54.18-53.41c21.4,0,31.25,4.93,35.71,7.54l-6.16,14.77c-3.39-1.54-11.39-5.85-27.24-5.85s-33.56,14.93-33.56,36.94,17.09,36.78,33.56,36.78c15.09,0,22.47-3.54,27.86-5.69l6.46,14.62Z"/>
    <path class="cls-1" d="M584.96,975.25h-19.55l41.87-102.97h14.93l37.87,102.97h-22.47l-7.85-23.09h-36.17l-8.62,23.09ZM612.82,900.44l-14.01,37.4h26.32l-12.31-37.4Z"/>
    <path class="cls-1" d="M696.33,961.24c8.31,0,15.85-4,15.85-11.08,0-8.31-9.39-12.93-20.47-19.85-9.85-6.16-23.86-13.7-23.86-32.02,0-16.01,14.93-27.71,32.17-27.71s24.78,4,29.55,6.16l-6.16,14.62c-3.7-1.85-10.47-4.77-18.32-4.77-7.23,0-15.24,2.31-15.24,9.08,0,8.62,9.85,12.78,19.86,19.39,9.39,6.16,25.4,16.01,25.4,30.78,0,20.01-18.78,31.4-39.1,31.4-17.24,0-27.09-4.92-31.09-7.23l6.16-14.47c3.69,1.69,11.24,5.7,25.24,5.7Z"/>
    <path class="cls-1" d="M740.73,872.58h87.43v16h-32.78v86.66h-21.86v-86.66h-32.79v-16Z"/>
    <path class="cls-1" d="M863.02,959.24h38.02v16.01h-59.88v-102.67h21.86v86.66Z"/>
    <path class="cls-1" d="M978.3,975.25h-66.19v-102.67h64.34v16h-42.48v25.86h31.09v16.01h-31.09v28.78h44.33v16.01Z"/>
  </g>
</svg>